# xmcd CD database file
#
# Track frame offsets:
#	150
#	5096
#	31811
#	37745
#	74277
#	101014
#	107245
#	132578
#	153515
#	177564
#	208408
#	223307
#	228294
#	257966
#	297346
#
# Disc length: 4316 seconds
#
# Revision: 0
# Processed by: cddbd v1.5.2PL0 Copyright (c) Steve Scherf et al.
# Submitted via: CDex 1.77
#
DISCID=e810da0f
DTITLE=Ralph Alessi - Wiry Strong
DYEAR=2008
DGENRE=Jazz
TTITLE0=Clown Painting
TTITLE1=Station Wagon Trip
TTITLE2=Pudgy
TTITLE3=Medieval Genius
TTITLE4=Halves and Wholes
TTITLE5=Racy Banter
TTITLE6=A Dollar in Your Shoe
TTITLE7=Humdrum
TTITLE8=20% of the 80%
TTITLE9=Sock Puppeteer
TTITLE10=Mira
TTITLE11=Celebrity Golf Classic
TTITLE12=Cobbs Hill
TTITLE13=Bizarro-World Moment
TTITLE14=Wiry Strong
EXTD=YEAR: 2008
EXTT0=
EXTT1=
EXTT2=
EXTT3=
EXTT4=
EXTT5=
EXTT6=
EXTT7=
EXTT8=
EXTT9=
EXTT10=
EXTT11=
EXTT12=
EXTT13=
EXTT14=
PLAYORDER=
